<svg version="1.2" xmlns="http://www.w3.org/2000/svg" viewBox="0 0 32 32" width="32" height="32">
	<title>BOOK 2</title>
	<style>
		.s0 { fill: #95e1d3 } 
	</style>
	<path id="BOOK 2" fill-rule="evenodd" class="s0" d="m31.1 25.9l-14.5 6q-0.3 0.1-0.6 0.1-0.3 0-0.6-0.1l-14.5-6c-0.5-0.2-0.9-0.8-0.9-1.4v-23c0-0.8 0.7-1.5 1.5-1.5q0.3 0 0.6 0.1 0 0 0 0l13.9 5.8 13.9-5.8q0 0 0 0 0.3-0.1 0.6-0.1c0.8 0 1.5 0.7 1.5 1.5v23c0 0.6-0.4 1.2-0.9 1.4zm-16.6-17.4l-11.5-4.8v19.8l11.5 4.8zm14.5-4.8l-11.5 4.8v19.7l11.5-4.8zm-9.1 6.9l5.5-2.5q0.3-0.1 0.6-0.1c0.8 0 1.5 0.7 1.5 1.5 0 0.6-0.4 1.1-0.9 1.4l-5.5 2.5q-0.3 0.1-0.6 0.1c-0.8 0-1.5-0.7-1.5-1.5 0-0.6 0.4-1.1 0.9-1.4zm0 5.5l5.5-2.5q0.3-0.1 0.6-0.1c0.8 0 1.5 0.7 1.5 1.5 0 0.6-0.4 1.1-0.9 1.4l-5.5 2.5q-0.3 0.1-0.6 0.1c-0.8 0-1.5-0.7-1.5-1.5 0-0.6 0.4-1.1 0.9-1.4zm0 5.5l5.5-2.5q0.3-0.1 0.6-0.1c0.8 0 1.5 0.7 1.5 1.5 0 0.6-0.4 1.1-0.9 1.4l-5.5 2.5q-0.3 0.1-0.6 0.1c-0.8 0-1.5-0.7-1.5-1.5 0-0.6 0.4-1.1 0.9-1.4zm-13.9-13.6q0.3 0 0.6 0.1l5.5 2.5c0.5 0.3 0.9 0.8 0.9 1.4 0 0.8-0.7 1.5-1.5 1.5q-0.3 0-0.6-0.1l-5.5-2.5c-0.5-0.3-0.9-0.8-0.9-1.4 0-0.8 0.7-1.5 1.5-1.5zm0 5.5q0.3 0 0.6 0.1l5.5 2.5c0.5 0.3 0.9 0.8 0.9 1.4 0 0.8-0.7 1.5-1.5 1.5q-0.3 0-0.6-0.1l-5.5-2.5c-0.5-0.3-0.9-0.8-0.9-1.4 0-0.8 0.7-1.5 1.5-1.5zm0 5.5q0.3 0 0.6 0.1l5.5 2.5c0.5 0.3 0.9 0.8 0.9 1.4 0 0.8-0.7 1.5-1.5 1.5q-0.3 0-0.6-0.1l-5.5-2.5c-0.5-0.3-0.9-0.8-0.9-1.4 0-0.8 0.7-1.5 1.5-1.5z"/>
</svg>