<svg version="1.2" xmlns="http://www.w3.org/2000/svg" viewBox="0 0 32 28" width="32" height="28">
	<title>COMPUTER / OK</title>
	<style>
		.s0 { fill: #95e1d3 } 
	</style>
	<path id="COMPUTER / OK" fill-rule="evenodd" class="s0" d="m30 23h-7.5-2v2.5l2 2v0.5h-13v-0.5l2-2v-2.5h-2-7.5c-0.8 0-1.5-0.7-1.5-1.5v-20c0-0.8 0.7-1.5 1.5-1.5h28c0.8 0 1.5 0.7 1.5 1.5v20c0 0.8-0.7 1.5-1.5 1.5zm-0.5-21h-27v17h27zm-16.5 7c0.4 0 0.8 0.2 1.1 0.4l0.9 1 2.9-3c0.3-0.2 0.7-0.4 1.1-0.4 0.8 0 1.5 0.7 1.5 1.5 0 0.4-0.2 0.8-0.4 1.1l-4 4c-0.3 0.2-0.7 0.4-1.1 0.4-0.4 0-0.8-0.2-1.1-0.4l-2-2c-0.2-0.3-0.4-0.7-0.4-1.1 0-0.8 0.7-1.5 1.5-1.5z"/>
	<path id="COMPUTER / OK" fill-rule="evenodd" class="s0" d="m30 23h-7.5-2v2.5l2 2v0.5h-13v-0.5l2-2v-2.5h-2-7.5c-0.8 0-1.5-0.7-1.5-1.5v-20c0-0.8 0.7-1.5 1.5-1.5h28c0.8 0 1.5 0.7 1.5 1.5v20c0 0.8-0.7 1.5-1.5 1.5zm-0.5-21h-27v17h27zm-16.5 7c0.4 0 0.8 0.2 1.1 0.4l0.9 1 2.9-3c0.3-0.2 0.7-0.4 1.1-0.4 0.8 0 1.5 0.7 1.5 1.5 0 0.4-0.2 0.8-0.4 1.1l-4 4c-0.3 0.2-0.7 0.4-1.1 0.4-0.4 0-0.8-0.2-1.1-0.4l-2-2c-0.2-0.3-0.4-0.7-0.4-1.1 0-0.8 0.7-1.5 1.5-1.5z"/>
</svg>