<svg version="1.2" xmlns="http://www.w3.org/2000/svg" viewBox="0 0 32 32" width="32" height="32">
	<title>IMAGE</title>
	<style>
		.s0 { fill: #95e1d3 } 
	</style>
	<path id="IMAGE" fill-rule="evenodd" class="s0" d="m30.5 32h-29c-0.8 0-1.5-0.7-1.5-1.5v-29c0-0.8 0.7-1.5 1.5-1.5h29c0.8 0 1.5 0.7 1.5 1.5v29c0 0.8-0.7 1.5-1.5 1.5zm-1.5-29h-26v26h26zm-22.5 1.5h5.5c0.8 0 1.5 0.7 1.5 1.5 0 0.8-0.7 1.5-1.5 1.5h-4.5v4.5c0 0.8-0.7 1.5-1.5 1.5-0.8 0-1.5-0.7-1.5-1.5v-5.5-2h2zm-2 15.5c0-0.8 0.7-1.5 1.5-1.5 0.8 0 1.5 0.7 1.5 1.5v4.5h4.5c0.8 0 1.5 0.7 1.5 1.5 0 0.8-0.7 1.5-1.5 1.5h-5.5-2v-2zm15.5-15.5h5.5 2v2 5.5c0 0.8-0.7 1.5-1.5 1.5-0.8 0-1.5-0.7-1.5-1.5v-4.5h-4.5c-0.8 0-1.5-0.7-1.5-1.5 0-0.8 0.7-1.5 1.5-1.5zm0 20h4.5v-4.5c0-0.8 0.7-1.5 1.5-1.5 0.8 0 1.5 0.7 1.5 1.5v5.5 2h-2-5.5c-0.8 0-1.5-0.7-1.5-1.5 0-0.8 0.7-1.5 1.5-1.5z"/>
</svg>