<svg version="1.2" xmlns="http://www.w3.org/2000/svg" viewBox="0 0 32 31" width="32" height="31">
	<title>HOME</title>
	<style>
		.s0 { fill: #95e1d3 } 
	</style>
	<path id="HOME" fill-rule="evenodd" class="s0" d="m32 16.5c0 0.8-0.7 1.5-1.5 1.5-0.4 0-0.8-0.2-1-0.4l-13.5-13.4v-0.1l-13.4 13.5c-0.3 0.2-0.7 0.4-1.1 0.4-0.8 0-1.5-0.7-1.5-1.5 0-0.4 0.2-0.8 0.5-1.1l14.4-14.4c0.3-0.3 0.7-0.5 1.1-0.5q0 0 0 0 0 0 0.1 0 0 0 0 0 0 0 0.1 0 0 0 0 0c0.3 0 0.7 0.2 0.9 0.5l5.9 5.9v-1.4c0-0.8 0.7-1.5 1.5-1.5 0.8 0 1.5 0.7 1.5 1.5v4.4l5.6 5.6c0.2 0.2 0.4 0.6 0.4 1zm-3 2.5v4.5 2 4c0 0.8-0.7 1.5-1.5 1.5h-3v-12h-6v12h-14c-0.8 0-1.5-0.7-1.5-1.5v-4-2-4.5l13-13zm-15.5 0h-6v6h6z"/>
</svg>