<svg version="1.2" xmlns="http://www.w3.org/2000/svg" viewBox="0 0 32 32" width="32" height="32">
	<title>LINE GRAPH</title>
	<style>
		.s0 { fill: #95e1d3 } 
	</style>
	<path id="LINE GRAPH" fill-rule="evenodd" class="s0" d="m30.5 32h-29c-0.8 0-1.5-0.7-1.5-1.5v-29c0-0.8 0.7-1.5 1.5-1.5h29c0.8 0 1.5 0.7 1.5 1.5v29c0 0.8-0.7 1.5-1.5 1.5zm-1.5-29h-26v26h26zm-23.8 13.2l4-2.5q0.4-0.2 0.8-0.2 0.5 0 0.8 0.3l6.7 4.4 7.6-5.4q0.4-0.3 0.9-0.3c0.8 0 1.5 0.7 1.5 1.5 0 0.5-0.2 0.9-0.6 1.2l-8.5 6q-0.4 0.3-0.9 0.3-0.5 0-0.9-0.3l-6.6-4.4-3.2 2q-0.3 0.2-0.8 0.2c-0.8 0-1.5-0.7-1.5-1.5 0-0.5 0.3-1 0.7-1.3z"/>
</svg>